<svg width="160" height="241" viewBox="0 0 160 241" fill="none" xmlns="http://www.w3.org/2000/svg">
<path fill-rule="evenodd" clip-rule="evenodd" d="M80 182C124.183 182 160 146.183 160 102C160 57.8172 124.183 22 80 22C35.8172 22 0 57.8172 0 102C0 146.183 35.8172 182 80 182ZM80 161.487C112.854 161.487 139.487 134.854 139.487 102C139.487 69.1461 112.854 42.5128 80 42.5128C47.1461 42.5128 20.5128 69.1461 20.5128 102C20.5128 134.854 47.1461 161.487 80 161.487Z" fill="#D9D9D9"/>
<path d="M48.3196 89.85V114H43.9446V96.01C43.9446 95.6133 43.9563 95.2167 43.9796 94.82C44.0263 94.4233 44.0846 94.0267 44.1546 93.63L38.3446 95.24L37.7846 92.3L43.9446 89.85H48.3196ZM62.6685 89.395C64.8852 89.395 66.6352 89.815 67.9185 90.655C69.2252 91.4717 70.1585 92.8017 70.7185 94.645C71.3018 96.4883 71.5935 98.915 71.5935 101.925C71.5935 104.935 71.3018 107.362 70.7185 109.205C70.1585 111.048 69.2252 112.39 67.9185 113.23C66.6352 114.047 64.8852 114.455 62.6685 114.455C60.4752 114.455 58.7252 114.047 57.4185 113.23C56.1352 112.39 55.2018 111.048 54.6185 109.205C54.0585 107.362 53.7785 104.935 53.7785 101.925C53.7785 98.915 54.0585 96.4883 54.6185 94.645C55.2018 92.8017 56.1352 91.4717 57.4185 90.655C58.7252 89.815 60.4752 89.395 62.6685 89.395ZM62.6685 92.93C61.7818 92.93 61.0468 93.0817 60.4635 93.385C59.8802 93.6883 59.4135 94.1783 59.0635 94.855C58.7135 95.5317 58.4685 96.4533 58.3285 97.62C58.1885 98.7633 58.1185 100.198 58.1185 101.925C58.1185 103.628 58.1885 105.063 58.3285 106.23C58.4685 107.397 58.7135 108.318 59.0635 108.995C59.4135 109.672 59.8802 110.162 60.4635 110.465C61.0468 110.768 61.7818 110.92 62.6685 110.92C63.5318 110.92 64.2668 110.768 64.8735 110.465C65.4802 110.162 65.9585 109.672 66.3085 108.995C66.6585 108.318 66.9035 107.397 67.0435 106.23C67.1835 105.063 67.2535 103.628 67.2535 101.925C67.2535 100.198 67.1835 98.7633 67.0435 97.62C66.9035 96.4533 66.6585 95.5317 66.3085 94.855C65.9585 94.1783 65.4802 93.6883 64.8735 93.385C64.2668 93.0817 63.5318 92.93 62.6685 92.93ZM84.3384 89.395C86.5551 89.395 88.3051 89.815 89.5884 90.655C90.8951 91.4717 91.8284 92.8017 92.3884 94.645C92.9718 96.4883 93.2634 98.915 93.2634 101.925C93.2634 104.935 92.9718 107.362 92.3884 109.205C91.8284 111.048 90.8951 112.39 89.5884 113.23C88.3051 114.047 86.5551 114.455 84.3384 114.455C82.1451 114.455 80.3951 114.047 79.0884 113.23C77.8051 112.39 76.8718 111.048 76.2884 109.205C75.7284 107.362 75.4484 104.935 75.4484 101.925C75.4484 98.915 75.7284 96.4883 76.2884 94.645C76.8718 92.8017 77.8051 91.4717 79.0884 90.655C80.3951 89.815 82.1451 89.395 84.3384 89.395ZM84.3384 92.93C83.4518 92.93 82.7168 93.0817 82.1334 93.385C81.5501 93.6883 81.0834 94.1783 80.7334 94.855C80.3834 95.5317 80.1384 96.4533 79.9984 97.62C79.8584 98.7633 79.7884 100.198 79.7884 101.925C79.7884 103.628 79.8584 105.063 79.9984 106.23C80.1384 107.397 80.3834 108.318 80.7334 108.995C81.0834 109.672 81.5501 110.162 82.1334 110.465C82.7168 110.768 83.4518 110.92 84.3384 110.92C85.2018 110.92 85.9368 110.768 86.5434 110.465C87.1501 110.162 87.6284 109.672 87.9784 108.995C88.3284 108.318 88.5734 107.397 88.7134 106.23C88.8534 105.063 88.9234 103.628 88.9234 101.925C88.9234 100.198 88.8534 98.7633 88.7134 97.62C88.5734 96.4533 88.3284 95.5317 87.9784 94.855C87.6284 94.1783 87.1501 93.6883 86.5434 93.385C85.9368 93.0817 85.2018 92.93 84.3384 92.93ZM102.403 89.395C103.85 89.395 105.005 89.6283 105.868 90.095C106.732 90.5617 107.338 91.32 107.688 92.37C108.062 93.3967 108.248 94.7967 108.248 96.57C108.248 98.32 108.062 99.72 107.688 100.77C107.338 101.82 106.732 102.578 105.868 103.045C105.005 103.512 103.85 103.745 102.403 103.745C100.98 103.745 99.8367 103.512 98.9734 103.045C98.11 102.578 97.4917 101.82 97.1184 100.77C96.7684 99.72 96.5934 98.32 96.5934 96.57C96.5934 94.7967 96.7684 93.3967 97.1184 92.37C97.4917 91.32 98.11 90.5617 98.9734 90.095C99.8367 89.6283 100.98 89.395 102.403 89.395ZM102.403 91.845C101.727 91.845 101.19 91.985 100.793 92.265C100.42 92.5217 100.152 93 99.9884 93.7C99.825 94.3767 99.7434 95.3333 99.7434 96.57C99.7434 97.8067 99.825 98.775 99.9884 99.475C100.152 100.152 100.42 100.63 100.793 100.91C101.19 101.167 101.727 101.295 102.403 101.295C103.103 101.295 103.64 101.167 104.013 100.91C104.41 100.63 104.678 100.152 104.818 99.475C104.982 98.775 105.063 97.8067 105.063 96.57C105.063 95.3333 104.982 94.3767 104.818 93.7C104.678 93 104.41 92.5217 104.013 92.265C103.64 91.985 103.103 91.845 102.403 91.845ZM119.798 89.85L104.818 114H102.053L117.033 89.85H119.798ZM119.518 100.035C120.965 100.035 122.108 100.268 122.948 100.735C123.812 101.202 124.43 101.96 124.803 103.01C125.177 104.037 125.363 105.425 125.363 107.175C125.363 108.925 125.177 110.337 124.803 111.41C124.43 112.46 123.812 113.218 122.948 113.685C122.108 114.128 120.965 114.35 119.518 114.35C118.095 114.35 116.952 114.128 116.088 113.685C115.225 113.218 114.607 112.46 114.233 111.41C113.883 110.337 113.708 108.925 113.708 107.175C113.708 105.425 113.883 104.037 114.233 103.01C114.607 101.96 115.225 101.202 116.088 100.735C116.952 100.268 118.095 100.035 119.518 100.035ZM119.483 102.45C118.807 102.45 118.27 102.59 117.873 102.87C117.5 103.127 117.232 103.605 117.068 104.305C116.928 104.982 116.858 105.938 116.858 107.175C116.858 108.412 116.928 109.38 117.068 110.08C117.232 110.78 117.5 111.27 117.873 111.55C118.27 111.807 118.807 111.935 119.483 111.935C120.183 111.935 120.72 111.807 121.093 111.55C121.49 111.27 121.77 110.78 121.933 110.08C122.097 109.38 122.178 108.412 122.178 107.175C122.178 105.938 122.097 104.982 121.933 104.305C121.77 103.605 121.49 103.127 121.093 102.87C120.72 102.59 120.183 102.45 119.483 102.45Z" fill="white"/>
<path d="M61.9768 199.43C63.0735 199.43 64.0068 199.465 64.7768 199.535C65.5468 199.582 66.2585 199.663 66.9118 199.78C67.5651 199.873 68.2418 200.013 68.9418 200.2L68.5568 203.455C67.8335 203.408 67.1568 203.373 66.5268 203.35C65.8968 203.303 65.2201 203.268 64.4968 203.245C63.7968 203.222 62.9568 203.21 61.9768 203.21C60.6235 203.21 59.5618 203.478 58.7918 204.015C58.0218 204.552 57.4735 205.45 57.1468 206.71C56.8435 207.97 56.6918 209.708 56.6918 211.925C56.6918 214.142 56.8435 215.88 57.1468 217.14C57.4735 218.4 58.0218 219.298 58.7918 219.835C59.5618 220.372 60.6235 220.64 61.9768 220.64C63.5401 220.64 64.8468 220.617 65.8968 220.57C66.9701 220.5 68.0201 220.407 69.0468 220.29L69.4318 223.51C68.3818 223.837 67.2968 224.07 66.1768 224.21C65.0568 224.35 63.6568 224.42 61.9768 224.42C59.5501 224.42 57.6135 224.023 56.1668 223.23C54.7201 222.413 53.6701 221.095 53.0168 219.275C52.3868 217.455 52.0718 215.005 52.0718 211.925C52.0718 208.845 52.3868 206.395 53.0168 204.575C53.6701 202.755 54.7201 201.448 56.1668 200.655C57.6135 199.838 59.5501 199.43 61.9768 199.43ZM80.6345 199.395C81.8245 199.418 83.0729 199.488 84.3795 199.605C85.7095 199.722 87.0045 199.943 88.2645 200.27L87.9845 203.245C86.9812 203.222 85.8145 203.198 84.4845 203.175C83.1779 203.128 81.9179 203.105 80.7045 203.105C79.9579 203.105 79.3162 203.128 78.7795 203.175C78.2662 203.222 77.8462 203.338 77.5195 203.525C77.1929 203.712 76.9479 204.003 76.7845 204.4C76.6445 204.773 76.5745 205.298 76.5745 205.975C76.5745 207.025 76.7845 207.772 77.2045 208.215C77.6479 208.658 78.3595 209.008 79.3395 209.265L84.0995 210.665C86.0129 211.248 87.3312 212.1 88.0545 213.22C88.7779 214.317 89.1395 215.787 89.1395 217.63C89.1395 219.007 88.9762 220.138 88.6495 221.025C88.3229 221.912 87.8212 222.6 87.1445 223.09C86.4679 223.58 85.5812 223.93 84.4845 224.14C83.3879 224.35 82.0695 224.455 80.5295 224.455C79.7362 224.455 78.6395 224.408 77.2395 224.315C75.8629 224.222 74.2879 223.988 72.5145 223.615L72.7945 220.465C74.1712 220.512 75.3262 220.558 76.2595 220.605C77.1929 220.628 77.9979 220.64 78.6745 220.64C79.3512 220.64 79.9812 220.64 80.5645 220.64C81.6379 220.64 82.4779 220.57 83.0845 220.43C83.6912 220.29 84.1112 219.998 84.3445 219.555C84.6012 219.112 84.7295 218.47 84.7295 217.63C84.7295 216.907 84.6362 216.347 84.4495 215.95C84.2862 215.53 84.0062 215.203 83.6095 214.97C83.2129 214.737 82.6995 214.538 82.0695 214.375L77.1345 212.87C75.3145 212.31 74.0312 211.482 73.2845 210.385C72.5612 209.288 72.1995 207.818 72.1995 205.975C72.1995 204.598 72.3629 203.478 72.6895 202.615C73.0162 201.728 73.5179 201.063 74.1945 200.62C74.8712 200.153 75.7345 199.838 76.7845 199.675C77.8579 199.488 79.1412 199.395 80.6345 199.395ZM100.766 199.395C101.956 199.418 103.205 199.488 104.511 199.605C105.841 199.722 107.136 199.943 108.396 200.27L108.116 203.245C107.113 203.222 105.946 203.198 104.616 203.175C103.31 203.128 102.05 203.105 100.836 203.105C100.09 203.105 99.448 203.128 98.9114 203.175C98.398 203.222 97.978 203.338 97.6514 203.525C97.3247 203.712 97.0797 204.003 96.9164 204.4C96.7764 204.773 96.7064 205.298 96.7064 205.975C96.7064 207.025 96.9164 207.772 97.3364 208.215C97.7797 208.658 98.4914 209.008 99.4714 209.265L104.231 210.665C106.145 211.248 107.463 212.1 108.186 213.22C108.91 214.317 109.271 215.787 109.271 217.63C109.271 219.007 109.108 220.138 108.781 221.025C108.455 221.912 107.953 222.6 107.276 223.09C106.6 223.58 105.713 223.93 104.616 224.14C103.52 224.35 102.201 224.455 100.661 224.455C99.868 224.455 98.7714 224.408 97.3714 224.315C95.9947 224.222 94.4197 223.988 92.6464 223.615L92.9264 220.465C94.303 220.512 95.458 220.558 96.3914 220.605C97.3247 220.628 98.1297 220.64 98.8064 220.64C99.483 220.64 100.113 220.64 100.696 220.64C101.77 220.64 102.61 220.57 103.216 220.43C103.823 220.29 104.243 219.998 104.476 219.555C104.733 219.112 104.861 218.47 104.861 217.63C104.861 216.907 104.768 216.347 104.581 215.95C104.418 215.53 104.138 215.203 103.741 214.97C103.345 214.737 102.831 214.538 102.201 214.375L97.2664 212.87C95.4464 212.31 94.163 211.482 93.4164 210.385C92.693 209.288 92.3314 207.818 92.3314 205.975C92.3314 204.598 92.4947 203.478 92.8214 202.615C93.148 201.728 93.6497 201.063 94.3264 200.62C95.003 200.153 95.8664 199.838 96.9164 199.675C97.9897 199.488 99.273 199.395 100.766 199.395Z" fill="white"/>
</svg>
