<svg width="160" height="241" viewBox="0 0 160 241" fill="none" xmlns="http://www.w3.org/2000/svg">
<path fill-rule="evenodd" clip-rule="evenodd" d="M80 182C124.183 182 160 146.183 160 102C160 57.8172 124.183 22 80 22C35.8172 22 0 57.8172 0 102C0 146.183 35.8172 182 80 182ZM80 161.487C112.854 161.487 139.487 134.854 139.487 102C139.487 69.1461 112.854 42.5128 80 42.5128C47.1461 42.5128 20.5128 69.1461 20.5128 102C20.5128 134.854 47.1461 161.487 80 161.487Z" fill="#D9D9D9"/>
<path d="M45.3196 89.85V114H40.9446V96.01C40.9446 95.6133 40.9563 95.2167 40.9796 94.82C41.0263 94.4233 41.0846 94.0267 41.1546 93.63L35.3446 95.24L34.7846 92.3L40.9446 89.85H45.3196ZM59.6685 89.395C61.8852 89.395 63.6352 89.815 64.9185 90.655C66.2252 91.4717 67.1585 92.8017 67.7185 94.645C68.3018 96.4883 68.5935 98.915 68.5935 101.925C68.5935 104.935 68.3018 107.362 67.7185 109.205C67.1585 111.048 66.2252 112.39 64.9185 113.23C63.6352 114.047 61.8852 114.455 59.6685 114.455C57.4752 114.455 55.7252 114.047 54.4185 113.23C53.1352 112.39 52.2018 111.048 51.6185 109.205C51.0585 107.362 50.7785 104.935 50.7785 101.925C50.7785 98.915 51.0585 96.4883 51.6185 94.645C52.2018 92.8017 53.1352 91.4717 54.4185 90.655C55.7252 89.815 57.4752 89.395 59.6685 89.395ZM59.6685 92.93C58.7818 92.93 58.0468 93.0817 57.4635 93.385C56.8802 93.6883 56.4135 94.1783 56.0635 94.855C55.7135 95.5317 55.4685 96.4533 55.3285 97.62C55.1885 98.7633 55.1185 100.198 55.1185 101.925C55.1185 103.628 55.1885 105.063 55.3285 106.23C55.4685 107.397 55.7135 108.318 56.0635 108.995C56.4135 109.672 56.8802 110.162 57.4635 110.465C58.0468 110.768 58.7818 110.92 59.6685 110.92C60.5318 110.92 61.2668 110.768 61.8735 110.465C62.4802 110.162 62.9585 109.672 63.3085 108.995C63.6585 108.318 63.9035 107.397 64.0435 106.23C64.1835 105.063 64.2535 103.628 64.2535 101.925C64.2535 100.198 64.1835 98.7633 64.0435 97.62C63.9035 96.4533 63.6585 95.5317 63.3085 94.855C62.9585 94.1783 62.4802 93.6883 61.8735 93.385C61.2668 93.0817 60.5318 92.93 59.6685 92.93ZM81.3384 89.395C83.5551 89.395 85.3051 89.815 86.5884 90.655C87.8951 91.4717 88.8284 92.8017 89.3884 94.645C89.9718 96.4883 90.2634 98.915 90.2634 101.925C90.2634 104.935 89.9718 107.362 89.3884 109.205C88.8284 111.048 87.8951 112.39 86.5884 113.23C85.3051 114.047 83.5551 114.455 81.3384 114.455C79.1451 114.455 77.3951 114.047 76.0884 113.23C74.8051 112.39 73.8718 111.048 73.2884 109.205C72.7284 107.362 72.4484 104.935 72.4484 101.925C72.4484 98.915 72.7284 96.4883 73.2884 94.645C73.8718 92.8017 74.8051 91.4717 76.0884 90.655C77.3951 89.815 79.1451 89.395 81.3384 89.395ZM81.3384 92.93C80.4518 92.93 79.7168 93.0817 79.1334 93.385C78.5501 93.6883 78.0834 94.1783 77.7334 94.855C77.3834 95.5317 77.1384 96.4533 76.9984 97.62C76.8584 98.7633 76.7884 100.198 76.7884 101.925C76.7884 103.628 76.8584 105.063 76.9984 106.23C77.1384 107.397 77.3834 108.318 77.7334 108.995C78.0834 109.672 78.5501 110.162 79.1334 110.465C79.7168 110.768 80.4518 110.92 81.3384 110.92C82.2018 110.92 82.9368 110.768 83.5434 110.465C84.1501 110.162 84.6284 109.672 84.9784 108.995C85.3284 108.318 85.5734 107.397 85.7134 106.23C85.8534 105.063 85.9234 103.628 85.9234 101.925C85.9234 100.198 85.8534 98.7633 85.7134 97.62C85.5734 96.4533 85.3284 95.5317 84.9784 94.855C84.6284 94.1783 84.1501 93.6883 83.5434 93.385C82.9368 93.0817 82.2018 92.93 81.3384 92.93ZM99.4034 89.395C100.85 89.395 102.005 89.6283 102.868 90.095C103.732 90.5617 104.338 91.32 104.688 92.37C105.062 93.3967 105.248 94.7967 105.248 96.57C105.248 98.32 105.062 99.72 104.688 100.77C104.338 101.82 103.732 102.578 102.868 103.045C102.005 103.512 100.85 103.745 99.4034 103.745C97.98 103.745 96.8367 103.512 95.9734 103.045C95.11 102.578 94.4917 101.82 94.1184 100.77C93.7684 99.72 93.5934 98.32 93.5934 96.57C93.5934 94.7967 93.7684 93.3967 94.1184 92.37C94.4917 91.32 95.11 90.5617 95.9734 90.095C96.8367 89.6283 97.98 89.395 99.4034 89.395ZM99.4034 91.845C98.7267 91.845 98.19 91.985 97.7934 92.265C97.42 92.5217 97.1517 93 96.9884 93.7C96.825 94.3767 96.7434 95.3333 96.7434 96.57C96.7434 97.8067 96.825 98.775 96.9884 99.475C97.1517 100.152 97.42 100.63 97.7934 100.91C98.19 101.167 98.7267 101.295 99.4034 101.295C100.103 101.295 100.64 101.167 101.013 100.91C101.41 100.63 101.678 100.152 101.818 99.475C101.982 98.775 102.063 97.8067 102.063 96.57C102.063 95.3333 101.982 94.3767 101.818 93.7C101.678 93 101.41 92.5217 101.013 92.265C100.64 91.985 100.103 91.845 99.4034 91.845ZM116.798 89.85L101.818 114H99.0534L114.033 89.85H116.798ZM116.518 100.035C117.965 100.035 119.108 100.268 119.948 100.735C120.812 101.202 121.43 101.96 121.803 103.01C122.177 104.037 122.363 105.425 122.363 107.175C122.363 108.925 122.177 110.337 121.803 111.41C121.43 112.46 120.812 113.218 119.948 113.685C119.108 114.128 117.965 114.35 116.518 114.35C115.095 114.35 113.952 114.128 113.088 113.685C112.225 113.218 111.607 112.46 111.233 111.41C110.883 110.337 110.708 108.925 110.708 107.175C110.708 105.425 110.883 104.037 111.233 103.01C111.607 101.96 112.225 101.202 113.088 100.735C113.952 100.268 115.095 100.035 116.518 100.035ZM116.483 102.45C115.807 102.45 115.27 102.59 114.873 102.87C114.5 103.127 114.232 103.605 114.068 104.305C113.928 104.982 113.858 105.938 113.858 107.175C113.858 108.412 113.928 109.38 114.068 110.08C114.232 110.78 114.5 111.27 114.873 111.55C115.27 111.807 115.807 111.935 116.483 111.935C117.183 111.935 117.72 111.807 118.093 111.55C118.49 111.27 118.77 110.78 118.933 110.08C119.097 109.38 119.178 108.412 119.178 107.175C119.178 105.938 119.097 104.982 118.933 104.305C118.77 103.605 118.49 103.127 118.093 102.87C117.72 102.59 117.183 102.45 116.483 102.45Z" fill="white"/>
<path d="M39.3337 199.85V224H34.9587V199.85H39.3337ZM49.4137 209.405V212.835H39.0537V209.405H49.4137ZM53.4037 199.85V224H49.0287V199.85H53.4037ZM68.6519 199.85V224H64.2769V199.85H68.6519ZM76.1419 199.85V203.42H56.7869V199.85H76.1419ZM103.434 199.85C104.531 199.85 105.091 200.41 105.114 201.53L106.059 224H101.894L101.054 203.315H100.389L95.874 219.52C95.664 220.477 95.069 220.955 94.089 220.955H91.009C90.0057 220.955 89.3873 220.477 89.154 219.52L84.639 203.315H83.974L83.204 224H79.039L79.984 201.53C80.0307 200.41 80.5907 199.85 81.664 199.85H86.039C86.9723 199.85 87.5557 200.328 87.789 201.285L91.499 214.515C91.6623 215.075 91.7907 215.635 91.884 216.195C92.0007 216.755 92.129 217.315 92.269 217.875H92.794C92.934 217.315 93.0623 216.755 93.179 216.195C93.2957 215.635 93.424 215.063 93.564 214.48L97.274 201.285C97.484 200.328 98.079 199.85 99.059 199.85H103.434ZM115.278 199.85V218.4C115.278 219.077 115.453 219.59 115.803 219.94C116.177 220.267 116.702 220.43 117.378 220.43H125.918L126.128 223.755C124.542 223.895 122.885 223.977 121.158 224C119.455 224.047 117.763 224.07 116.083 224.07C114.31 224.07 113.003 223.615 112.163 222.705C111.347 221.795 110.938 220.64 110.938 219.24V199.85H115.278Z" fill="white"/>
</svg>
