<svg width="160" height="241" viewBox="0 0 160 241" fill="none" xmlns="http://www.w3.org/2000/svg">
<path fill-rule="evenodd" clip-rule="evenodd" d="M80 182C124.183 182 160 146.183 160 102C160 57.8172 124.183 22 80 22C35.8172 22 0 57.8172 0 102C0 146.183 35.8172 182 80 182ZM80 161.487C112.854 161.487 139.487 134.854 139.487 102C139.487 69.1461 112.854 42.5128 80 42.5128C47.1461 42.5128 20.5128 69.1461 20.5128 102C20.5128 134.854 47.1461 161.487 80 161.487Z" fill="url(#paint0_angular_9_422)"/>
<path d="M53.0585 89.43C54.8551 89.43 56.3135 89.6283 57.4335 90.025C58.5535 90.4217 59.4051 91.0867 59.9885 92.02C60.5718 92.93 60.9685 94.1783 61.1785 95.765C61.3885 97.3283 61.4935 99.3 61.4935 101.68C61.4935 104.387 61.3068 106.58 60.9335 108.26C60.5835 109.94 60.0235 111.235 59.2535 112.145C58.4835 113.032 57.4685 113.638 56.2085 113.965C54.9718 114.268 53.4668 114.42 51.6935 114.42C51.1101 114.42 50.3051 114.385 49.2785 114.315C48.2518 114.268 47.1318 114.105 45.9185 113.825L46.1985 110.885C46.8285 110.932 47.3885 110.967 47.8785 110.99C48.3685 110.99 48.9051 110.99 49.4885 110.99C50.0718 110.99 50.8068 110.99 51.6935 110.99C52.8135 110.99 53.7351 110.862 54.4585 110.605C55.1818 110.325 55.7418 109.847 56.1385 109.17C56.5585 108.47 56.8501 107.502 57.0135 106.265C57.2001 105.005 57.2935 103.407 57.2935 101.47C57.2935 99.7433 57.2585 98.32 57.1885 97.2C57.1185 96.08 56.9435 95.205 56.6635 94.575C56.4068 93.9217 55.9868 93.4667 55.4035 93.21C54.8435 92.9533 54.0385 92.825 52.9885 92.825C51.8451 92.825 50.9818 93.0117 50.3985 93.385C49.8385 93.7583 49.4535 94.3183 49.2435 95.065C49.0568 95.8117 48.9635 96.7567 48.9635 97.9C48.9635 98.9267 49.0685 99.7783 49.2785 100.455C49.4885 101.132 49.8735 101.645 50.4335 101.995C50.9935 102.322 51.7751 102.485 52.7785 102.485C53.4785 102.485 54.1201 102.392 54.7035 102.205C55.2868 102.018 55.8935 101.715 56.5235 101.295C57.1768 100.852 57.9468 100.257 58.8335 99.51L58.9735 101.33C58.2268 102.45 57.4918 103.325 56.7685 103.955C56.0685 104.585 55.3101 105.028 54.4935 105.285C53.6768 105.542 52.6968 105.67 51.5535 105.67C49.8268 105.67 48.4735 105.343 47.4935 104.69C46.5135 104.013 45.8251 103.092 45.4285 101.925C45.0318 100.758 44.8335 99.4283 44.8335 97.935C44.8335 95.9983 45.0785 94.4117 45.5685 93.175C46.0585 91.915 46.8985 90.9817 48.0885 90.375C49.3018 89.745 50.9585 89.43 53.0585 89.43ZM74.3746 89.395C76.5912 89.395 78.3412 89.815 79.6246 90.655C80.9312 91.4717 81.8646 92.8017 82.4246 94.645C83.0079 96.4883 83.2996 98.915 83.2996 101.925C83.2996 104.935 83.0079 107.362 82.4246 109.205C81.8646 111.048 80.9312 112.39 79.6246 113.23C78.3412 114.047 76.5912 114.455 74.3746 114.455C72.1812 114.455 70.4312 114.047 69.1246 113.23C67.8412 112.39 66.9079 111.048 66.3246 109.205C65.7646 107.362 65.4846 104.935 65.4846 101.925C65.4846 98.915 65.7646 96.4883 66.3246 94.645C66.9079 92.8017 67.8412 91.4717 69.1246 90.655C70.4312 89.815 72.1812 89.395 74.3746 89.395ZM74.3746 92.93C73.4879 92.93 72.7529 93.0817 72.1696 93.385C71.5862 93.6883 71.1196 94.1783 70.7696 94.855C70.4196 95.5317 70.1746 96.4533 70.0346 97.62C69.8946 98.7633 69.8246 100.198 69.8246 101.925C69.8246 103.628 69.8946 105.063 70.0346 106.23C70.1746 107.397 70.4196 108.318 70.7696 108.995C71.1196 109.672 71.5862 110.162 72.1696 110.465C72.7529 110.768 73.4879 110.92 74.3746 110.92C75.2379 110.92 75.9729 110.768 76.5796 110.465C77.1862 110.162 77.6646 109.672 78.0146 108.995C78.3646 108.318 78.6096 107.397 78.7496 106.23C78.8896 105.063 78.9596 103.628 78.9596 101.925C78.9596 100.198 78.8896 98.7633 78.7496 97.62C78.6096 96.4533 78.3646 95.5317 78.0146 94.855C77.6646 94.1783 77.1862 93.6883 76.5796 93.385C75.9729 93.0817 75.2379 92.93 74.3746 92.93ZM92.4395 89.395C93.8862 89.395 95.0412 89.6283 95.9045 90.095C96.7678 90.5617 97.3745 91.32 97.7245 92.37C98.0978 93.3967 98.2845 94.7967 98.2845 96.57C98.2845 98.32 98.0978 99.72 97.7245 100.77C97.3745 101.82 96.7678 102.578 95.9045 103.045C95.0412 103.512 93.8862 103.745 92.4395 103.745C91.0162 103.745 89.8728 103.512 89.0095 103.045C88.1462 102.578 87.5278 101.82 87.1545 100.77C86.8045 99.72 86.6295 98.32 86.6295 96.57C86.6295 94.7967 86.8045 93.3967 87.1545 92.37C87.5278 91.32 88.1462 90.5617 89.0095 90.095C89.8728 89.6283 91.0162 89.395 92.4395 89.395ZM92.4395 91.845C91.7628 91.845 91.2262 91.985 90.8295 92.265C90.4562 92.5217 90.1878 93 90.0245 93.7C89.8612 94.3767 89.7795 95.3333 89.7795 96.57C89.7795 97.8067 89.8612 98.775 90.0245 99.475C90.1878 100.152 90.4562 100.63 90.8295 100.91C91.2262 101.167 91.7628 101.295 92.4395 101.295C93.1395 101.295 93.6762 101.167 94.0495 100.91C94.4462 100.63 94.7145 100.152 94.8545 99.475C95.0178 98.775 95.0995 97.8067 95.0995 96.57C95.0995 95.3333 95.0178 94.3767 94.8545 93.7C94.7145 93 94.4462 92.5217 94.0495 92.265C93.6762 91.985 93.1395 91.845 92.4395 91.845ZM109.834 89.85L94.8545 114H92.0895L107.069 89.85H109.834ZM109.554 100.035C111.001 100.035 112.144 100.268 112.984 100.735C113.848 101.202 114.466 101.96 114.839 103.01C115.213 104.037 115.399 105.425 115.399 107.175C115.399 108.925 115.213 110.337 114.839 111.41C114.466 112.46 113.848 113.218 112.984 113.685C112.144 114.128 111.001 114.35 109.554 114.35C108.131 114.35 106.988 114.128 106.124 113.685C105.261 113.218 104.643 112.46 104.269 111.41C103.919 110.337 103.744 108.925 103.744 107.175C103.744 105.425 103.919 104.037 104.269 103.01C104.643 101.96 105.261 101.202 106.124 100.735C106.988 100.268 108.131 100.035 109.554 100.035ZM109.519 102.45C108.843 102.45 108.306 102.59 107.909 102.87C107.536 103.127 107.268 103.605 107.104 104.305C106.964 104.982 106.894 105.938 106.894 107.175C106.894 108.412 106.964 109.38 107.104 110.08C107.268 110.78 107.536 111.27 107.909 111.55C108.306 111.807 108.843 111.935 109.519 111.935C110.219 111.935 110.756 111.807 111.129 111.55C111.526 111.27 111.806 110.78 111.969 110.08C112.133 109.38 112.214 108.412 112.214 107.175C112.214 105.938 112.133 104.982 111.969 104.305C111.806 103.605 111.526 103.127 111.129 102.87C110.756 102.59 110.219 102.45 109.519 102.45Z" fill="white"/>
<path d="M74.1021 199.85V219.1C74.1021 220.827 73.6471 222.133 72.7371 223.02C71.8504 223.907 70.5788 224.35 68.9221 224.35C68.5721 224.35 68.1404 224.327 67.6271 224.28C67.1138 224.257 66.6238 224.198 66.1571 224.105C65.6904 224.012 65.3054 223.907 65.0021 223.79L65.4921 220.85H67.2071C68.9104 220.85 69.7621 220.103 69.7621 218.61V199.85H74.1021ZM86.8211 199.395C88.0111 199.418 89.2594 199.488 90.5661 199.605C91.8961 199.722 93.1911 199.943 94.4511 200.27L94.1711 203.245C93.1677 203.222 92.0011 203.198 90.6711 203.175C89.3644 203.128 88.1044 203.105 86.8911 203.105C86.1444 203.105 85.5027 203.128 84.9661 203.175C84.4527 203.222 84.0327 203.338 83.7061 203.525C83.3794 203.712 83.1344 204.003 82.9711 204.4C82.8311 204.773 82.7611 205.298 82.7611 205.975C82.7611 207.025 82.9711 207.772 83.3911 208.215C83.8344 208.658 84.5461 209.008 85.5261 209.265L90.2861 210.665C92.1994 211.248 93.5177 212.1 94.2411 213.22C94.9644 214.317 95.3261 215.787 95.3261 217.63C95.3261 219.007 95.1627 220.138 94.8361 221.025C94.5094 221.912 94.0077 222.6 93.3311 223.09C92.6544 223.58 91.7677 223.93 90.6711 224.14C89.5744 224.35 88.2561 224.455 86.7161 224.455C85.9227 224.455 84.8261 224.408 83.4261 224.315C82.0494 224.222 80.4744 223.988 78.7011 223.615L78.9811 220.465C80.3577 220.512 81.5127 220.558 82.4461 220.605C83.3794 220.628 84.1844 220.64 84.8611 220.64C85.5377 220.64 86.1677 220.64 86.7511 220.64C87.8244 220.64 88.6644 220.57 89.2711 220.43C89.8777 220.29 90.2977 219.998 90.5311 219.555C90.7877 219.112 90.9161 218.47 90.9161 217.63C90.9161 216.907 90.8227 216.347 90.6361 215.95C90.4727 215.53 90.1927 215.203 89.7961 214.97C89.3994 214.737 88.8861 214.538 88.2561 214.375L83.3211 212.87C81.5011 212.31 80.2177 211.482 79.4711 210.385C78.7477 209.288 78.3861 207.818 78.3861 205.975C78.3861 204.598 78.5494 203.478 78.8761 202.615C79.2027 201.728 79.7044 201.063 80.3811 200.62C81.0577 200.153 81.9211 199.838 82.9711 199.675C84.0444 199.488 85.3277 199.395 86.8211 199.395Z" fill="white"/>
<defs>
<radialGradient id="paint0_angular_9_422" cx="0" cy="0" r="1" gradientUnits="userSpaceOnUse" gradientTransform="translate(80 102) rotate(101.423) scale(297.901 297.901)">
<stop stop-color="#D9D9D9"/>
<stop offset="1" stop-color="#4C4C4C"/>
</radialGradient>
</defs>
</svg>
