<svg width="160" height="241" viewBox="0 0 160 241" fill="none" xmlns="http://www.w3.org/2000/svg">
<path fill-rule="evenodd" clip-rule="evenodd" d="M80 181C124.183 181 160 145.183 160 101C160 56.8172 124.183 21 80 21C35.8172 21 0 56.8172 0 101C0 145.183 35.8172 181 80 181ZM80 160.487C112.854 160.487 139.487 133.854 139.487 101C139.487 68.1461 112.854 41.5128 80 41.5128C47.1461 41.5128 20.5128 68.1461 20.5128 101C20.5128 133.854 47.1461 160.487 80 160.487Z" fill="url(#paint0_angular_22_451)"/>
<path d="M53.9053 88.465C55.562 88.465 56.9153 88.5933 57.9653 88.85C59.0153 89.1067 59.832 89.4917 60.4153 90.005C61.022 90.5183 61.442 91.1833 61.6753 92C61.9087 92.7933 62.0253 93.75 62.0253 94.87C62.0253 95.85 61.897 96.7483 61.6403 97.565C61.407 98.3583 61.0337 99.0117 60.5203 99.525C60.007 100.015 59.3303 100.307 58.4903 100.4V100.54C59.5637 100.633 60.392 100.972 60.9753 101.555C61.582 102.115 62.002 102.862 62.2353 103.795C62.4687 104.728 62.5853 105.79 62.5853 106.98C62.5853 108.497 62.3403 109.733 61.8503 110.69C61.3837 111.623 60.5203 112.312 59.2603 112.755C58.0237 113.175 56.2387 113.385 53.9053 113.385C51.5953 113.385 49.8103 113.175 48.5503 112.755C47.2903 112.312 46.4153 111.623 45.9253 110.69C45.4353 109.733 45.1903 108.497 45.1903 106.98C45.1903 105.79 45.307 104.728 45.5403 103.795C45.7737 102.862 46.1937 102.115 46.8003 101.555C47.407 100.972 48.2353 100.633 49.2853 100.54V100.4C48.4453 100.307 47.757 100.015 47.2203 99.525C46.707 99.0117 46.3337 98.3583 46.1003 97.565C45.867 96.7483 45.7503 95.85 45.7503 94.87C45.7503 93.75 45.867 92.7933 46.1003 92C46.3337 91.1833 46.7537 90.5183 47.3603 90.005C47.967 89.4917 48.7953 89.1067 49.8453 88.85C50.8953 88.5933 52.2487 88.465 53.9053 88.465ZM53.9753 102.01C53.0187 102.01 52.237 102.08 51.6303 102.22C51.0237 102.337 50.5453 102.547 50.1953 102.85C49.8687 103.13 49.6353 103.538 49.4953 104.075C49.3553 104.612 49.2853 105.3 49.2853 106.14C49.2853 107.097 49.4137 107.867 49.6703 108.45C49.927 109.01 50.3937 109.407 51.0703 109.64C51.747 109.85 52.7037 109.955 53.9403 109.955C55.1537 109.955 56.087 109.85 56.7403 109.64C57.3937 109.407 57.837 109.01 58.0703 108.45C58.3037 107.867 58.4203 107.097 58.4203 106.14C58.4203 105.277 58.3503 104.577 58.2103 104.04C58.0937 103.503 57.872 103.095 57.5453 102.815C57.2187 102.512 56.7637 102.302 56.1803 102.185C55.6203 102.068 54.8853 102.01 53.9753 102.01ZM53.9403 91.65C52.797 91.65 51.922 91.7667 51.3153 92C50.7087 92.21 50.2887 92.5833 50.0553 93.12C49.822 93.6567 49.7053 94.4033 49.7053 95.36C49.7053 96.3167 49.822 97.0633 50.0553 97.6C50.2887 98.1133 50.7087 98.4633 51.3153 98.65C51.9453 98.8367 52.832 98.93 53.9753 98.93C55.142 98.93 56.017 98.8367 56.6003 98.65C57.1837 98.44 57.5687 98.0783 57.7553 97.565C57.9653 97.0517 58.0703 96.3167 58.0703 95.36C58.0703 94.4033 57.9653 93.6567 57.7553 93.12C57.5453 92.5833 57.137 92.21 56.5303 92C55.947 91.7667 55.0837 91.65 53.9403 91.65ZM75.4727 88.395C77.6894 88.395 79.4394 88.815 80.7227 89.655C82.0294 90.4717 82.9627 91.8017 83.5227 93.645C84.106 95.4883 84.3977 97.915 84.3977 100.925C84.3977 103.935 84.106 106.362 83.5227 108.205C82.9627 110.048 82.0294 111.39 80.7227 112.23C79.4394 113.047 77.6894 113.455 75.4727 113.455C73.2794 113.455 71.5294 113.047 70.2227 112.23C68.9394 111.39 68.006 110.048 67.4227 108.205C66.8627 106.362 66.5827 103.935 66.5827 100.925C66.5827 97.915 66.8627 95.4883 67.4227 93.645C68.006 91.8017 68.9394 90.4717 70.2227 89.655C71.5294 88.815 73.2794 88.395 75.4727 88.395ZM75.4727 91.93C74.586 91.93 73.851 92.0817 73.2677 92.385C72.6844 92.6883 72.2177 93.1783 71.8677 93.855C71.5177 94.5317 71.2727 95.4533 71.1327 96.62C70.9927 97.7633 70.9227 99.1983 70.9227 100.925C70.9227 102.628 70.9927 104.063 71.1327 105.23C71.2727 106.397 71.5177 107.318 71.8677 107.995C72.2177 108.672 72.6844 109.162 73.2677 109.465C73.851 109.768 74.586 109.92 75.4727 109.92C76.336 109.92 77.071 109.768 77.6777 109.465C78.2844 109.162 78.7627 108.672 79.1127 107.995C79.4627 107.318 79.7077 106.397 79.8477 105.23C79.9877 104.063 80.0577 102.628 80.0577 100.925C80.0577 99.1983 79.9877 97.7633 79.8477 96.62C79.7077 95.4533 79.4627 94.5317 79.1127 93.855C78.7627 93.1783 78.2844 92.6883 77.6777 92.385C77.071 92.0817 76.336 91.93 75.4727 91.93ZM93.5376 88.395C94.9843 88.395 96.1393 88.6283 97.0026 89.095C97.866 89.5617 98.4726 90.32 98.8226 91.37C99.196 92.3967 99.3826 93.7967 99.3826 95.57C99.3826 97.32 99.196 98.72 98.8226 99.77C98.4726 100.82 97.866 101.578 97.0026 102.045C96.1393 102.512 94.9843 102.745 93.5376 102.745C92.1143 102.745 90.971 102.512 90.1076 102.045C89.2443 101.578 88.626 100.82 88.2526 99.77C87.9026 98.72 87.7276 97.32 87.7276 95.57C87.7276 93.7967 87.9026 92.3967 88.2526 91.37C88.626 90.32 89.2443 89.5617 90.1076 89.095C90.971 88.6283 92.1143 88.395 93.5376 88.395ZM93.5376 90.845C92.861 90.845 92.3243 90.985 91.9276 91.265C91.5543 91.5217 91.286 92 91.1226 92.7C90.9593 93.3767 90.8776 94.3333 90.8776 95.57C90.8776 96.8067 90.9593 97.775 91.1226 98.475C91.286 99.1517 91.5543 99.63 91.9276 99.91C92.3243 100.167 92.861 100.295 93.5376 100.295C94.2376 100.295 94.7743 100.167 95.1476 99.91C95.5443 99.63 95.8126 99.1517 95.9526 98.475C96.116 97.775 96.1976 96.8067 96.1976 95.57C96.1976 94.3333 96.116 93.3767 95.9526 92.7C95.8126 92 95.5443 91.5217 95.1476 91.265C94.7743 90.985 94.2376 90.845 93.5376 90.845ZM110.933 88.85L95.9526 113H93.1876L108.168 88.85H110.933ZM110.653 99.035C112.099 99.035 113.243 99.2683 114.083 99.735C114.946 100.202 115.564 100.96 115.938 102.01C116.311 103.037 116.498 104.425 116.498 106.175C116.498 107.925 116.311 109.337 115.938 110.41C115.564 111.46 114.946 112.218 114.083 112.685C113.243 113.128 112.099 113.35 110.653 113.35C109.229 113.35 108.086 113.128 107.223 112.685C106.359 112.218 105.741 111.46 105.368 110.41C105.018 109.337 104.843 107.925 104.843 106.175C104.843 104.425 105.018 103.037 105.368 102.01C105.741 100.96 106.359 100.202 107.223 99.735C108.086 99.2683 109.229 99.035 110.653 99.035ZM110.618 101.45C109.941 101.45 109.404 101.59 109.008 101.87C108.634 102.127 108.366 102.605 108.203 103.305C108.063 103.982 107.993 104.938 107.993 106.175C107.993 107.412 108.063 108.38 108.203 109.08C108.366 109.78 108.634 110.27 109.008 110.55C109.404 110.807 109.941 110.935 110.618 110.935C111.318 110.935 111.854 110.807 112.228 110.55C112.624 110.27 112.904 109.78 113.068 109.08C113.231 108.38 113.313 107.412 113.313 106.175C113.313 104.938 113.231 103.982 113.068 103.305C112.904 102.605 112.624 102.127 112.228 101.87C111.854 101.59 111.318 101.45 110.618 101.45Z" fill="white"/>
<path d="M38.8628 198.535C40.8695 198.535 42.4912 198.745 43.7278 199.165C44.9878 199.585 45.8978 200.308 46.4578 201.335C47.0412 202.338 47.3328 203.762 47.3328 205.605C47.3328 206.818 47.1812 207.857 46.8778 208.72C46.5978 209.56 46.1195 210.237 45.4428 210.75C44.7895 211.24 43.9028 211.555 42.7828 211.695V211.87C43.1795 211.963 43.5878 212.15 44.0078 212.43C44.4512 212.687 44.8478 213.06 45.1978 213.55C45.5712 214.04 45.8512 214.67 46.0378 215.44L48.2428 223H43.6228L41.6278 215.545C41.3712 214.705 41.0212 214.122 40.5778 213.795C40.1345 213.445 39.5278 213.27 38.7578 213.27C37.2412 213.27 35.9462 213.27 34.8728 213.27C33.7995 213.247 32.9012 213.223 32.1778 213.2C31.4778 213.177 30.8595 213.165 30.3228 213.165L30.4278 209.84H38.7578C39.8078 209.817 40.6362 209.7 41.2428 209.49C41.8495 209.257 42.2812 208.86 42.5378 208.3C42.7945 207.717 42.9228 206.9 42.9228 205.85C42.9228 204.823 42.7945 204.03 42.5378 203.47C42.2812 202.91 41.8495 202.525 41.2428 202.315C40.6362 202.082 39.8078 201.965 38.7578 201.965C36.7045 201.965 34.9428 201.977 33.4728 202C32.0028 202.023 30.9995 202.047 30.4628 202.07L29.9728 198.85C30.9062 198.757 31.7812 198.687 32.5978 198.64C33.4378 198.593 34.3478 198.57 35.3278 198.57C36.3078 198.547 37.4862 198.535 38.8628 198.535ZM34.2778 198.85V223H29.9728V198.85H34.2778ZM56.9496 198.78C58.163 198.78 59.3996 198.78 60.6596 198.78C61.943 198.78 63.203 198.803 64.4396 198.85C65.6763 198.897 66.843 198.967 67.9396 199.06L67.7296 202.315H58.2796C57.6263 202.315 57.1363 202.478 56.8096 202.805C56.5063 203.132 56.3546 203.645 56.3546 204.345V217.505C56.3546 218.205 56.5063 218.718 56.8096 219.045C57.1363 219.372 57.6263 219.535 58.2796 219.535H67.7296L67.9396 222.79C66.843 222.883 65.6763 222.953 64.4396 223C63.203 223.023 61.943 223.035 60.6596 223.035C59.3996 223.058 58.163 223.07 56.9496 223.07C55.4563 223.07 54.2546 222.662 53.3446 221.845C52.458 221.005 52.003 219.885 51.9796 218.485V203.365C52.003 201.965 52.458 200.857 53.3446 200.04C54.2546 199.2 55.4563 198.78 56.9496 198.78ZM52.6096 208.755H66.3996V211.975H52.6096V208.755ZM82.7906 198.85C83.1639 198.85 83.4906 198.955 83.7706 199.165C84.0506 199.375 84.2489 199.655 84.3656 200.005L91.6806 223H87.2006L81.6706 204.38C81.5772 204.007 81.4839 203.633 81.3906 203.26C81.2972 202.887 81.2156 202.525 81.1456 202.175H80.1656C80.0956 202.525 80.0139 202.887 79.9206 203.26C79.8272 203.633 79.7222 204.007 79.6056 204.38L74.1106 223H69.6306L76.9456 200.005C77.0389 199.655 77.2256 199.375 77.5056 199.165C77.8089 198.955 78.1472 198.85 78.5206 198.85H82.7906ZM86.8506 212.675V216.105H74.4256V212.675H86.8506ZM103.432 198.43C104.529 198.43 105.462 198.465 106.232 198.535C107.002 198.582 107.714 198.663 108.367 198.78C109.021 198.873 109.697 199.013 110.397 199.2L110.012 202.455C109.289 202.408 108.612 202.373 107.982 202.35C107.352 202.303 106.676 202.268 105.952 202.245C105.252 202.222 104.412 202.21 103.432 202.21C102.079 202.21 101.017 202.478 100.247 203.015C99.4774 203.552 98.929 204.45 98.6024 205.71C98.299 206.97 98.1474 208.708 98.1474 210.925C98.1474 213.142 98.299 214.88 98.6024 216.14C98.929 217.4 99.4774 218.298 100.247 218.835C101.017 219.372 102.079 219.64 103.432 219.64C104.996 219.64 106.302 219.617 107.352 219.57C108.426 219.5 109.476 219.407 110.502 219.29L110.887 222.51C109.837 222.837 108.752 223.07 107.632 223.21C106.512 223.35 105.112 223.42 103.432 223.42C101.006 223.42 99.069 223.023 97.6224 222.23C96.1757 221.413 95.1257 220.095 94.4724 218.275C93.8424 216.455 93.5274 214.005 93.5274 210.925C93.5274 207.845 93.8424 205.395 94.4724 203.575C95.1257 201.755 96.1757 200.448 97.6224 199.655C99.069 198.838 101.006 198.43 103.432 198.43ZM124.54 198.85V223H120.165V198.85H124.54ZM132.03 198.85V202.42H112.675V198.85H132.03Z" fill="white"/>
<defs>
<radialGradient id="paint0_angular_22_451" cx="0" cy="0" r="1" gradientUnits="userSpaceOnUse" gradientTransform="translate(80 101) rotate(70.3848) scale(99.791)">
<stop stop-color="#9B9797"/>
<stop offset="1" stop-color="#303030"/>
</radialGradient>
</defs>
</svg>
