<svg width="48" height="53" viewBox="0 0 48 53" fill="none" xmlns="http://www.w3.org/2000/svg">
<g clip-path="url(#clip0_8_249)">
<rect y="0.102051" width="48" height="52.8929" rx="24" fill="black"/>
<path d="M24 52.995C37.2548 52.995 48 41.1545 48 26.5485C48 11.9425 37.2548 0.102051 24 0.102051C10.7452 0.102051 0 11.9425 0 26.5485C0 41.1545 10.7452 52.995 24 52.995Z" fill="white"/>
<path fill-rule="evenodd" clip-rule="evenodd" d="M10.8635 26.2692C17.86 22.9102 22.5255 20.6958 24.8598 19.6259C31.5249 16.5711 32.9098 16.0404 33.8125 16.0229C34.011 16.019 34.4549 16.0733 34.7425 16.3304C34.9853 16.5475 35.0521 16.8407 35.0841 17.0466C35.116 17.2524 35.1558 17.7213 35.1242 18.0877C34.763 22.2695 33.2002 32.4176 32.4051 37.1013C32.0687 39.0832 31.4062 39.7477 30.7649 39.8127C29.3712 39.954 28.3129 38.7977 26.963 37.8227C24.8507 36.2969 23.6573 35.3471 21.607 33.8582C19.2374 32.1375 20.7735 31.1918 22.1239 29.6462C22.4773 29.2418 28.6181 23.0869 28.737 22.5285C28.7518 22.4587 28.7656 22.1984 28.6253 22.061C28.485 21.9235 28.2778 21.9705 28.1284 22.0079C27.9165 22.0609 24.5421 24.5186 18.005 29.3811C17.0472 30.1059 16.1796 30.459 15.4023 30.4405C14.5454 30.4201 12.897 29.9066 11.6716 29.4677C10.1686 28.9293 8.97407 28.6447 9.07809 27.7303C9.13227 27.2541 9.72742 26.7671 10.8635 26.2692Z" fill="black"/>
</g>
<defs>
<clipPath id="clip0_8_249">
<rect y="0.102051" width="48" height="52.8929" rx="24" fill="white"/>
</clipPath>
</defs>
</svg>
