<svg width="48" height="53" viewBox="0 0 48 53" fill="none" xmlns="http://www.w3.org/2000/svg">
<path d="M40.634 9.26044C37.5747 7.71358 34.294 6.57392 30.8638 5.9212C30.8013 5.9086 30.7389 5.94008 30.7067 6.00304C30.2848 6.82997 29.8175 7.90876 29.4902 8.75669C25.8008 8.14805 22.1304 8.14805 18.5166 8.75669C18.1893 7.88991 17.705 6.82997 17.2811 6.00304C17.249 5.94218 17.1866 5.9107 17.1241 5.9212C13.6958 6.57184 10.4151 7.71149 7.35387 9.26044C7.32737 9.27303 7.30465 9.29403 7.28958 9.3213C1.06678 19.5657 -0.637901 29.5583 0.19836 39.427C0.202144 39.4752 0.22674 39.5214 0.260796 39.5508C4.36642 42.8732 8.34341 44.8902 12.2466 46.2271C12.309 46.2482 12.3752 46.223 12.415 46.1663C13.3383 44.7769 14.1613 43.3119 14.867 41.7713C14.9086 41.6811 14.8688 41.5741 14.7837 41.5384C13.4783 40.9927 12.2352 40.3273 11.0395 39.5718C10.9449 39.5109 10.9373 39.3619 11.0243 39.2905C11.2759 39.0827 11.5276 38.8665 11.7679 38.6483C11.8114 38.6084 11.872 38.6 11.9231 38.6252C19.7786 42.5773 28.2831 42.5773 36.0459 38.6252C36.097 38.5979 36.1576 38.6063 36.203 38.6462C36.4433 38.8644 36.6949 39.0827 36.9484 39.2905C37.0354 39.3619 37.0298 39.5109 36.9352 39.5718C35.7394 40.342 34.4964 40.9927 33.189 41.5363C33.1039 41.572 33.0661 41.6811 33.1077 41.7713C33.8285 43.3098 34.6515 44.7747 35.5578 46.1642C35.5957 46.223 35.6637 46.2482 35.7262 46.2271C39.6483 44.8902 43.6252 42.8732 47.7309 39.5508C47.7668 39.5214 47.7895 39.4773 47.7933 39.4291C48.7942 28.0198 46.117 18.1091 40.6964 9.32339C40.6832 9.29403 40.6605 9.27303 40.634 9.26044ZM16.04 33.418C13.675 33.418 11.7263 31.0253 11.7263 28.087C11.7263 25.1486 13.6372 22.7559 16.04 22.7559C18.4617 22.7559 20.3916 25.1696 20.3538 28.087C20.3538 31.0253 18.4428 33.418 16.04 33.418ZM31.9895 33.418C29.6245 33.418 27.6758 31.0253 27.6758 28.087C27.6758 25.1486 29.5867 22.7559 31.9895 22.7559C34.4113 22.7559 36.3411 25.1696 36.3033 28.087C36.3033 31.0253 34.4113 33.418 31.9895 33.418Z" fill="#E8E9EA"/>
</svg>
