<svg width="48" height="53" viewBox="0 0 48 53" fill="none" xmlns="http://www.w3.org/2000/svg">
<path fill-rule="evenodd" clip-rule="evenodd" d="M24.0199 2.10205C10.7375 2.10205 0 12.9187 0 26.3004C0 36.9971 6.87988 46.0516 16.4241 49.2563C17.6174 49.4972 18.0545 48.7356 18.0545 48.095C18.0545 47.534 18.0151 45.6111 18.0151 43.6075C11.3334 45.0501 9.94198 40.7229 9.94198 40.7229C8.86818 37.9185 7.27715 37.1977 7.27715 37.1977C5.09022 35.7153 7.43645 35.7153 7.43645 35.7153C9.86233 35.8756 11.1353 38.1992 11.1353 38.1992C13.2824 41.8847 16.7422 40.8434 18.1341 40.2022C18.3328 38.6397 18.9695 37.5581 19.6455 36.9572C14.3163 36.3963 8.70937 34.3131 8.70937 25.0181C8.70937 22.3739 9.66321 20.2106 11.1746 18.5281C10.9361 17.9273 10.1008 15.4429 11.4135 12.1178C11.4135 12.1178 13.4417 11.4766 18.0146 14.6017C19.9725 14.072 21.9916 13.8025 24.0199 13.8003C26.048 13.8003 28.1154 14.081 30.0246 14.6017C34.5981 11.4766 36.6262 12.1178 36.6262 12.1178C37.9389 15.4429 37.1031 17.9273 36.8646 18.5281C38.4158 20.2106 39.3303 22.3739 39.3303 25.0181C39.3303 34.3131 33.7234 36.3559 28.3544 36.9572C29.2296 37.7183 29.9848 39.1604 29.9848 41.4442C29.9848 44.6892 29.9454 47.2935 29.9454 48.0945C29.9454 48.7356 30.383 49.4972 31.5758 49.2568C41.12 46.0511 47.9999 36.9971 47.9999 26.3004C48.0392 12.9187 37.2624 2.10205 24.0199 2.10205Z" fill="white"/>
</svg>
