<svg width="48" height="53" viewBox="0 0 48 53" fill="none" xmlns="http://www.w3.org/2000/svg">
<path d="M0 50.1021L3.374 37.7761C1.292 34.1681 0.198 30.0781 0.2 25.8841C0.206 12.772 10.876 2.10205 23.986 2.10205C30.348 2.10405 36.32 4.58205 40.812 9.07805C45.302 13.5741 47.774 19.5501 47.772 25.9061C47.766 39.0201 37.096 49.6901 23.986 49.6901C20.006 49.6881 16.084 48.6901 12.61 46.7941L0 50.1021ZM13.194 42.4881C16.546 44.4781 19.746 45.6701 23.978 45.6721C34.874 45.6721 43.75 36.8041 43.756 25.9021C43.76 14.9781 34.926 6.12205 23.994 6.11805C13.09 6.11805 4.22 14.9861 4.216 25.8861C4.214 30.3361 5.518 33.668 7.708 37.154L5.71 44.4501L13.194 42.4881ZM35.968 31.5601C35.82 31.3121 35.424 31.1641 34.828 30.8661C34.234 30.5681 31.312 29.1301 30.766 28.9321C30.222 28.7341 29.826 28.6341 29.428 29.2301C29.032 29.8241 27.892 31.1641 27.546 31.5601C27.2 31.9561 26.852 32.0061 26.258 31.7081C25.664 31.4101 23.748 30.7841 21.478 28.7581C19.712 27.1821 18.518 25.2361 18.172 24.6401C17.826 24.0461 18.136 23.7241 18.432 23.4281C18.7 23.1621 19.026 22.7341 19.324 22.3861C19.626 22.0421 19.724 21.7941 19.924 21.3961C20.122 21.0001 20.024 20.6521 19.874 20.3541C19.724 20.0581 18.536 17.1321 18.042 15.9421C17.558 14.7841 17.068 14.9401 16.704 14.9221L15.564 14.9021C15.168 14.9021 14.524 15.0501 13.98 15.6461C13.436 16.2421 11.9 17.6781 11.9 20.6041C11.9 23.5301 14.03 26.3561 14.326 26.7521C14.624 27.1481 18.516 33.1521 24.478 35.7261C25.896 36.3381 27.004 36.7041 27.866 36.9781C29.29 37.4301 30.586 37.3661 31.61 37.2141C32.752 37.0441 35.126 35.7761 35.622 34.3881C36.118 32.9981 36.118 31.8081 35.968 31.5601Z" fill="white"/>
</svg>
