<svg width="48" height="53" viewBox="0 0 48 53" fill="none" xmlns="http://www.w3.org/2000/svg">
<rect width="48" height="52.8929" rx="20" fill="white" fill-opacity="0.02"/>
<path d="M24 4.76243C30.4125 4.76243 31.1719 4.79342 33.6938 4.91739C36.0375 5.03102 37.3031 5.46491 38.1469 5.82648C39.2625 6.30169 40.0688 6.88021 40.9031 7.79964C41.7469 8.72939 42.2625 9.6075 42.6938 10.8368C43.0219 11.7666 43.4156 13.1716 43.5188 15.7439C43.6313 18.5332 43.6594 19.37 43.6594 26.4258C43.6594 33.4919 43.6313 34.3287 43.5188 37.1077C43.4156 39.6903 43.0219 41.085 42.6938 42.0147C42.2625 43.2441 41.7375 44.1325 40.9031 45.0519C40.0594 45.9817 39.2625 46.5499 38.1469 47.0251C37.3031 47.3867 36.0281 47.8206 33.6938 47.9342C31.1625 48.0582 30.4031 48.0891 24 48.0891C17.5875 48.0891 16.8281 48.0582 14.3063 47.9342C11.9625 47.8206 10.6969 47.3867 9.85313 47.0251C8.7375 46.5499 7.93125 45.9714 7.09688 45.0519C6.25313 44.1222 5.7375 43.2441 5.30625 42.0147C4.97813 41.085 4.58438 39.68 4.48125 37.1077C4.36875 34.3184 4.34063 33.4816 4.34063 26.4258C4.34063 19.3596 4.36875 18.5228 4.48125 15.7439C4.58438 13.1612 4.97813 11.7666 5.30625 10.8368C5.7375 9.6075 6.2625 8.71906 7.09688 7.79964C7.94063 6.86988 8.7375 6.30169 9.85313 5.82648C10.6969 5.46491 11.9719 5.03102 14.3063 4.91739C16.8281 4.79342 17.5875 4.76243 24 4.76243ZM24 0C17.4844 0 16.6688 0.0309919 14.1094 0.15496C11.5594 0.278927 9.80625 0.733476 8.2875 1.38431C6.70313 2.06613 5.3625 2.96489 4.03125 4.44218C2.69063 5.90913 1.875 7.38641 1.25625 9.12196C0.665625 10.8059 0.253125 12.7274 0.140625 15.5373C0.028125 18.3679 0 19.2667 0 26.4464C0 33.6262 0.028125 34.525 0.140625 37.3453C0.253125 40.1552 0.665625 42.087 1.25625 43.7606C1.875 45.5065 2.69063 46.9838 4.03125 48.4507C5.3625 49.9177 6.70313 50.8268 8.27813 51.4983C9.80625 52.1491 11.55 52.6036 14.1 52.7276C16.6594 52.8516 17.475 52.8826 23.9906 52.8826C30.5063 52.8826 31.3219 52.8516 33.8813 52.7276C36.4313 52.6036 38.1844 52.1491 39.7031 51.4983C41.2781 50.8268 42.6188 49.9177 43.95 48.4507C45.2813 46.9838 46.1063 45.5065 46.7156 43.7709C47.3063 42.087 47.7188 40.1655 47.8313 37.3556C47.9438 34.5353 47.9719 33.6366 47.9719 26.4568C47.9719 19.277 47.9438 18.3782 47.8313 15.558C47.7188 12.748 47.3063 10.8162 46.7156 9.14262C46.125 7.38641 45.3094 5.90913 43.9688 4.44218C42.6375 2.97523 41.2969 2.06613 39.7219 1.39464C38.1938 0.743806 36.45 0.289258 33.9 0.16529C31.3313 0.0309919 30.5156 0 24 0Z" fill="white"/>
<path d="M24 12.8616C17.1938 12.8616 11.6719 18.9463 11.6719 26.4464C11.6719 33.9464 17.1938 40.0312 24 40.0312C30.8062 40.0312 36.3281 33.9464 36.3281 26.4464C36.3281 18.9463 30.8062 12.8616 24 12.8616ZM24 35.2584C19.5844 35.2584 16.0031 31.3121 16.0031 26.4464C16.0031 21.5806 19.5844 17.6343 24 17.6343C28.4156 17.6343 31.9969 21.5806 31.9969 26.4464C31.9969 31.3121 28.4156 35.2584 24 35.2584Z" fill="white"/>
<path d="M39.6937 12.3246C39.6937 14.0808 38.4 15.4961 36.8156 15.4961C35.2219 15.4961 33.9375 14.0705 33.9375 12.3246C33.9375 10.5684 35.2313 9.15308 36.8156 9.15308C38.4 9.15308 39.6937 10.5787 39.6937 12.3246Z" fill="white"/>
</svg>
