<svg width="115" height="118" viewBox="0 0 115 118" fill="none" xmlns="http://www.w3.org/2000/svg">
<path d="M26.1635 49.1884C26.1635 49.1884 24.6074 48.0375 26.4747 46.5007L30.8253 42.509C30.8253 42.509 32.0702 41.1651 33.3864 42.336L73.5336 73.5247V88.4803C73.5336 88.4803 73.5142 90.8288 70.577 90.5693L26.1635 49.1884Z" fill="#2489CA"/>
<path d="M36.5115 58.8286L26.1635 68.4819C26.1635 68.4819 25.1002 69.2936 26.1635 70.7439L30.968 75.2279C30.968 75.2279 32.1091 76.4853 33.7949 75.0549L44.7653 66.5193L36.5115 58.8286Z" fill="#1070B3"/>
<path d="M54.6788 58.9084L73.6567 44.0392L73.5335 29.1633C73.5335 29.1633 72.723 25.9167 70.0193 27.6065L44.7651 51.191L54.6788 58.9084Z" fill="#0877B9"/>
<path d="M70.5771 90.5893C71.6794 91.7469 73.015 91.3677 73.015 91.3677L87.8044 83.8899C89.6976 82.5659 89.4318 80.9227 89.4318 80.9227V36.2686C89.4318 34.306 87.4737 33.6274 87.4737 33.6274L74.6554 27.2872C71.8544 25.5108 70.0195 27.6065 70.0195 27.6065C70.0195 27.6065 72.3796 25.8635 73.5337 29.1633V88.2076C73.5337 88.6134 73.4494 89.0126 73.2808 89.3718C72.9437 90.0704 72.211 90.7224 70.4539 90.4496L70.5771 90.5893Z" fill="#3C99D4"/>
</svg>
